<svg xmlns="http://www.w3.org/2000/svg" width="420" height="620" viewBox="0 0 420 620">
  <defs><filter id="shadow" x="-50%" y="-50%" width="200%" height="200%"><feDropShadow dx="0" dy="14" stdDeviation="14" flood-color="#0b0616" flood-opacity="0.5"/></filter></defs>
  <g filter="url(#shadow)">
    <ellipse cx="210" cy="592" rx="78" ry="16" fill="#120b1f" opacity="0.45"/>
    <path d="M184 42c-18-28 8-54 26-22 16-32 46-8 24 18l-12 110h-26z" fill="#f8f2ff"/>
    <path d="M132 178c0-60 46-108 102-108s102 48 102 108v118c0 76-57 160-120 160-64 0-84-77-84-152z" fill="#f7f4fb"/>
    <path d="M110 280c8 142 56 194 100 194 52 0 112-73 126-196-22 28-64 44-120 44-40 0-79-13-106-42z" fill="#17131f"/>
    <rect x="166" y="240" width="88" height="110" rx="22" fill="#0f0b17"/>
    <path d="M155 214h110v42H155z" fill="#f5efe9"/>
    <path d="M162 360h96v132c0 16-13 30-30 30h-36c-17 0-30-14-30-30z" fill="#201827"/>
    <path d="M150 494h50v72h-42c-18 0-30-18-23-34z" fill="#17121f"/>
    <path d="M220 494h50l15 38c7 16-5 34-23 34h-42z" fill="#17121f"/>
    <circle cx="188" cy="185" r="8" fill="#201827"/>
    <circle cx="238" cy="185" r="8" fill="#201827"/>
    <path d="M202 216c7 6 15 6 22 0" fill="none" stroke="#6d4a8c" stroke-width="4" stroke-linecap="round"/>
    <circle cx="210" cy="197" r="7" fill="#f2c2d7"/>
  </g>
</svg>