<svg xmlns="http://www.w3.org/2000/svg" width="420" height="620" viewBox="0 0 420 620">
  <defs><filter id="shadow" x="-50%" y="-50%" width="200%" height="200%"><feDropShadow dx="0" dy="14" stdDeviation="14" flood-color="#08040f" flood-opacity="0.55"/></filter></defs>
  <g filter="url(#shadow)">
    <ellipse cx="210" cy="592" rx="78" ry="16" fill="#120b1f" opacity="0.45"/>
    <path d="M210 52l86 54-26 188H150L124 106z" fill="#241536"/>
    <path d="M150 294h120l46 182c6 22-10 44-34 44H138c-24 0-40-22-34-44z" fill="#17101f"/>
    <path d="M176 144c0-30 15-58 34-58s34 28 34 58-15 56-34 56-34-26-34-56z" fill="#efe7fb"/>
    <path d="M176 142c12 10 28 14 34 14s22-4 34-14" fill="none" stroke="#5c3d7a" stroke-width="4"/>
    <circle cx="198" cy="144" r="6" fill="#1b1325"/>
    <circle cx="222" cy="144" r="6" fill="#1b1325"/>
    <path d="M198 168c6 5 18 5 24 0" fill="none" stroke="#8f5bc8" stroke-width="4" stroke-linecap="round"/>
    <path d="M160 332h28v188h-46z" fill="#20152c"/>
    <path d="M232 332h28l18 188h-46z" fill="#20152c"/>
  </g>
</svg>